<svg width="271" height="243" viewBox="0 0 271 243" fill="none" xmlns="http://www.w3.org/2000/svg">
<path d="M121 242.5C187.827 242.5 242 188.326 242 121.5C242 54.6736 187.826 0.5 121 0.5C54.1736 0.5 4.20277e-06 54.6736 9.38715e-06 121.5C1.45715e-05 188.326 54.1736 242.5 121 242.5Z" fill="white"/>
<path d="M108.968 18.9617C108.887 18.9648 108.805 18.9679 108.724 18.9711C94.2172 19.5663 79.9775 23.0662 66.8479 29.2636C42.0766 40.9863 22.6575 61.6466 12.4901 87.0957C2.32273 112.545 2.1599 140.898 12.0343 166.463L195.501 56.7146C184.852 44.3108 171.539 34.4729 156.555 27.9357C141.571 21.3984 125.304 18.3308 108.968 18.9617ZM199.87 62.3239L14.7537 173.059C14.845 173.283 14.9371 173.506 15.03 173.73C15.8401 175.34 16.6903 176.93 17.5796 178.498L203.327 67.3865C202.222 65.6668 201.07 63.9786 199.87 62.3239ZM207.121 73.3395L21.0503 184.645C22.1764 186.374 23.3517 188.07 24.5746 189.732L210.065 78.7739C209.135 76.9348 208.154 75.1226 207.121 73.3395ZM213.08 85.1924L28.8118 195.42C44.069 214.358 65.2452 227.623 88.9431 233.086C112.641 238.55 137.487 235.895 159.496 225.548C184.808 213.582 204.515 192.297 214.501 166.141C224.487 139.985 223.978 110.982 213.08 85.1924Z" fill="#7762D2"/>
<path d="M226.976 124.08L192.689 88.5073L142.427 86.8857L179.199 54.2981L180.446 6.08241L214.733 41.6553L264.995 43.2769L228.223 75.8645L226.976 124.08Z" fill="white" stroke="#7762D2" stroke-width="4.27"/>
</svg>
